<svg width="19" height="24" viewBox="0 0 19 24" fill="none" xmlns="http://www.w3.org/2000/svg">
<path d="M9.94589 16.9824C9.94589 16.7235 9.7335 16.5137 9.47148 16.5137C9.20946 16.5137 8.99707 16.7235 8.99707 16.9824C8.99707 17.2413 9.20946 17.4512 9.47148 17.4512C9.7335 17.4512 9.94589 17.2413 9.94589 16.9824Z" fill="#333333"/>
<path d="M16.2545 20.6771C15.663 20.7508 14.7194 20.6976 13.5825 20.0247C12.7963 19.5594 12.0087 19.4223 11.2416 19.6171C10.45 19.8182 9.86035 20.336 9.49999 20.743C9.13962 20.336 8.54993 19.8182 7.75828 19.6171C6.99125 19.4223 6.20363 19.5594 5.41739 20.0247C4.28056 20.6976 3.33676 20.7508 2.74541 20.6771C2.38163 20.6315 2.03194 20.8207 1.87462 21.1475C1.7156 21.4778 1.78586 21.8545 2.05357 22.1072C2.98541 22.9865 4.41538 24.0002 6.05448 24.0002C6.15287 24.0002 6.25212 23.9965 6.35203 23.9889C7.49062 23.9028 8.54742 23.3226 9.49999 22.263C10.4526 23.3225 11.5094 23.9028 12.6479 23.9889C12.7479 23.9965 12.847 24.0002 12.9455 24.0002C14.5844 24.0002 16.0146 22.9865 16.9464 22.1072C17.2142 21.8545 17.2844 21.4778 17.1254 21.1475C16.9679 20.8207 16.618 20.6316 16.2545 20.6771ZM6.2794 23.0524C4.98705 23.1501 3.78342 22.3803 2.93849 21.6361C3.67611 21.6726 4.7155 21.5352 5.90594 20.8305C6.46408 20.5002 7.00577 20.3977 7.5159 20.5254C8.17154 20.6898 8.65805 21.1943 8.90583 21.5064C8.08932 22.4624 7.20696 22.9821 6.2794 23.0524ZM12.7205 23.0524C11.793 22.9822 10.9108 22.4626 10.0944 21.5067C10.3421 21.1958 10.8281 20.692 11.4783 20.5268C11.9902 20.3968 12.5337 20.4989 13.0939 20.8305C14.2844 21.5351 15.3238 21.6724 16.0614 21.636C15.2165 22.3803 14.0131 23.1507 12.7205 23.0524Z" fill="#333333"/>
<path d="M15.1075 2.19792C14.607 2.19792 14.1042 2.29603 13.6484 2.47908C12.8734 0.937172 11.3177 0 9.47424 0C7.63172 0 6.07669 0.936328 5.30127 2.47673C4.85404 2.29336 4.37526 2.19792 3.8925 2.19792C1.70978 2.19792 0 3.95578 0 6.19988C0 7.90045 1.00376 9.42863 2.48013 10.0381V16.983C2.48013 17.2424 2.69295 17.4527 2.95549 17.4527H7.31633C7.57887 17.4527 7.79169 17.2424 7.79169 16.983C7.79169 16.7236 7.57887 16.5133 7.31633 16.5133H3.43085V15.1725H15.5176V16.5133H11.6266C11.364 16.5133 11.1512 16.7236 11.1512 16.983C11.1512 17.2424 11.364 17.4527 11.6266 17.4527H15.993C16.2555 17.4527 16.4684 17.2424 16.4684 16.983V10.0584C17.9728 9.46355 19 7.92009 19 6.19988C19 3.95578 17.2902 2.19792 15.1075 2.19792ZM15.9047 9.26025C15.8945 9.26334 15.8847 9.26723 15.8749 9.27094C15.1144 9.46097 14.3428 9.3735 13.6971 9.02175C13.4671 8.89636 13.178 8.97909 13.0513 9.20625C12.9245 9.43341 13.0082 9.71906 13.2381 9.84431C13.8035 10.1523 14.4378 10.3092 15.0894 10.3092C15.2315 10.3092 15.3745 10.3014 15.5177 10.2864V14.2332H11.918V11.7866C11.918 11.5272 11.7052 11.3169 11.4426 11.3169C11.1801 11.3169 10.9673 11.5272 10.9673 11.7866V14.2332H7.97557V11.7866C7.97557 11.5272 7.76275 11.3169 7.50021 11.3169C7.23767 11.3169 7.02485 11.5272 7.02485 11.7866V14.2332H3.43085V10.2805C3.5913 10.2993 3.75146 10.3092 3.91062 10.3092C4.56223 10.3092 5.19661 10.1523 5.76197 9.84431C5.99187 9.71911 6.07551 9.43345 5.94874 9.20625C5.82193 8.97909 5.53283 8.89631 5.30297 9.02175C4.65801 9.37303 3.88761 9.46059 3.12813 9.27164C3.11736 9.26752 3.1065 9.26363 3.09535 9.2602C1.83265 8.8763 0.950769 7.61784 0.950769 6.19978C0.950769 4.48242 2.24297 3.1372 3.8926 3.1372C4.38228 3.1372 4.86747 3.27033 5.29557 3.52219C5.41712 3.59367 5.56461 3.60806 5.69788 3.56119C5.83118 3.51441 5.93646 3.41133 5.98508 3.28012C6.52008 1.83623 7.85707 0.939281 9.47424 0.939281C11.0914 0.939281 12.4284 1.83623 12.9634 3.28012C13.012 3.41133 13.1173 3.51441 13.2506 3.56119C13.3839 3.60802 13.5314 3.59367 13.6529 3.52219C14.0688 3.2775 14.599 3.1372 15.1074 3.1372C16.757 3.1372 18.0492 4.48247 18.0492 6.19978C18.0493 7.61789 17.1674 8.87639 15.9047 9.26025Z" fill="#333333"/>
</svg>
