<svg width="13" height="14" viewBox="0 0 13 14" fill="none" xmlns="http://www.w3.org/2000/svg">
<path d="M5.02273 2.33333H7.97727C7.97727 1.94656 7.82163 1.57563 7.54459 1.30214C7.26755 1.02865 6.8918 0.875 6.5 0.875C6.1082 0.875 5.73245 1.02865 5.45541 1.30214C5.17837 1.57563 5.02273 1.94656 5.02273 2.33333ZM4.13636 2.33333C4.13636 1.71449 4.38539 1.121 4.82866 0.683417C5.27192 0.245833 5.87312 0 6.5 0C7.12687 0 7.72807 0.245833 8.17134 0.683417C8.61461 1.121 8.86364 1.71449 8.86364 2.33333H12.5568C12.6744 2.33333 12.7871 2.37943 12.8702 2.46147C12.9533 2.54352 13 2.6548 13 2.77083C13 2.88687 12.9533 2.99815 12.8702 3.08019C12.7871 3.16224 12.6744 3.20833 12.5568 3.20833H11.7827L11.0636 11.7268C11.0113 12.3464 10.725 12.9241 10.2614 13.3452C9.7979 13.7662 9.191 14 8.56109 14H4.43891C3.809 14 3.2021 13.7662 2.73857 13.3452C2.27504 12.9241 1.98873 12.3464 1.93641 11.7268L1.21727 3.20833H0.443182C0.325643 3.20833 0.212918 3.16224 0.129805 3.08019C0.0466922 2.99815 0 2.88687 0 2.77083C0 2.6548 0.0466922 2.54352 0.129805 2.46147C0.212918 2.37943 0.325643 2.33333 0.443182 2.33333H4.13636ZM2.81982 11.6538C2.85361 12.0548 3.03882 12.4286 3.33872 12.7011C3.63862 12.9736 4.03131 13.1249 4.43891 13.125H8.56109C8.96869 13.1249 9.36138 12.9736 9.66128 12.7011C9.96118 12.4286 10.1464 12.0548 10.1802 11.6538L10.894 3.20833H2.10659L2.81982 11.6538ZM5.17045 5.25C5.28799 5.25 5.40072 5.29609 5.48383 5.37814C5.56694 5.46019 5.61364 5.57147 5.61364 5.6875V10.6458C5.61364 10.7619 5.56694 10.8731 5.48383 10.9552C5.40072 11.0372 5.28799 11.0833 5.17045 11.0833C5.05292 11.0833 4.94019 11.0372 4.85708 10.9552C4.77396 10.8731 4.72727 10.7619 4.72727 10.6458V5.6875C4.72727 5.57147 4.77396 5.46019 4.85708 5.37814C4.94019 5.29609 5.05292 5.25 5.17045 5.25ZM8.27273 5.6875C8.27273 5.57147 8.22604 5.46019 8.14292 5.37814C8.05981 5.29609 7.94708 5.25 7.82955 5.25C7.71201 5.25 7.59928 5.29609 7.51617 5.37814C7.43306 5.46019 7.38636 5.57147 7.38636 5.6875V10.6458C7.38636 10.7619 7.43306 10.8731 7.51617 10.9552C7.59928 11.0372 7.71201 11.0833 7.82955 11.0833C7.94708 11.0833 8.05981 11.0372 8.14292 10.9552C8.22604 10.8731 8.27273 10.7619 8.27273 10.6458V5.6875Z" fill="#F54D4D"/>
</svg>
