<svg width="24" height="24" viewBox="0 0 24 24" fill="none" xmlns="http://www.w3.org/2000/svg">
<mask id="mask0_224_1166" style="mask-type:luminance" maskUnits="userSpaceOnUse" x="0" y="0" width="24" height="24">
<path d="M0 1.90735e-06H24V24H0V1.90735e-06Z" fill="white"/>
</mask>
<g mask="url(#mask0_224_1166)">
<path d="M5.47048 18.9145C5.47048 18.9145 5.43509 17.3926 6.17488 16.1264C6.63941 15.3314 6.9343 14.4488 7.00822 13.5309L7.16366 11.601C7.1825 11.3667 7.37816 11.1862 7.61319 11.1862C8.33427 11.1862 8.93638 11.7378 8.99713 12.4563C9.12083 13.9204 9.18547 15.7524 10.2665 16.2288C11.402 16.7291 13.9936 13.9476 13.9936 13.9476L15.1974 12.047C15.5369 11.511 16.1271 11.1862 16.7615 11.1862C17.21 11.1862 17.4978 11.6626 17.2893 12.0596L16.5526 13.4615C16.2177 14.0991 15.8223 14.703 15.3719 15.2651L13.6946 17.3585C13.2054 17.9691 12.6604 18.5312 12.0672 19.0381" stroke="#333333" stroke-miterlimit="10" stroke-linecap="round" stroke-linejoin="round"/>
<path d="M6.90903 23.5181L3.64789 20.2569C3.50539 20.1144 3.50539 19.8834 3.64789 19.7409L4.71336 18.6754C4.85586 18.5329 5.08691 18.5329 5.22941 18.6754L8.49055 21.9366C8.63305 22.0791 8.63305 22.3101 8.49055 22.4527L7.42508 23.5181C7.28258 23.6606 7.05153 23.6606 6.90903 23.5181Z" stroke="#333333" stroke-miterlimit="10" stroke-linecap="round" stroke-linejoin="round"/>
<path d="M4.90967 19.9375L5.24853 20.2764" stroke="#333333" stroke-miterlimit="10" stroke-linecap="round" stroke-linejoin="round"/>
<path d="M16.8557 9.99918H21.5233C21.9742 9.99918 22.3397 10.3647 22.3397 10.8155C22.3397 11.2664 21.9742 11.6318 21.5233 11.6318H2.81628C2.36544 11.6318 2 11.2664 2 10.8155C2 10.3647 2.36544 9.99918 2.81628 9.99918H15.4494" stroke="#333333" stroke-miterlimit="10" stroke-linecap="round" stroke-linejoin="round"/>
<path d="M5.5648 4.87863C4.33325 6.13507 3.46672 7.75066 3.13672 9.55371" stroke="#333333" stroke-miterlimit="10" stroke-linecap="round" stroke-linejoin="round"/>
<path d="M20.8633 9.55371C20.0951 5.35638 16.4192 2.17502 12 2.17502C9.98505 2.17502 8.12473 2.83634 6.62402 3.95374" stroke="#333333" stroke-miterlimit="10" stroke-linecap="round" stroke-linejoin="round"/>
<path d="M12.9174 2.22168V1.29257C12.9174 0.785898 12.5066 0.375133 12 0.375133C11.4932 0.375133 11.0825 0.785898 11.0825 1.29257V2.22168" stroke="#333333" stroke-miterlimit="10" stroke-linecap="round" stroke-linejoin="round"/>
<path d="M15.269 11.9427L15.3883 11.7683C15.5574 11.5214 15.3807 11.1861 15.0815 11.1861C14.2509 11.1861 13.4847 11.6337 13.077 12.3573L12.2697 13.7899L10.0449 16.1016" stroke="#333333" stroke-miterlimit="10" stroke-linecap="round" stroke-linejoin="round"/>
</g>
</svg>
