<svg width="24" height="24" viewBox="0 0 24 24" fill="none" xmlns="http://www.w3.org/2000/svg">
<path d="M16.6989 9.27993C16.6497 9.23102 16.5895 9.19469 16.5233 9.17404C16.4571 9.15338 16.3869 9.149 16.3187 9.16128C16.0414 9.21211 15.1942 9.37558 14.3255 9.62374C14.6179 9.17585 14.7735 8.65255 14.7734 8.1177C14.7734 6.72948 12.601 3.54428 12.3532 3.18561C12.3117 3.13152 12.2583 3.08771 12.1972 3.05755C12.136 3.0274 12.0688 3.01172 12.0006 3.01172C11.9324 3.01172 11.8652 3.0274 11.8041 3.05755C11.7429 3.08771 11.6895 3.13152 11.648 3.18561C11.4003 3.54428 9.22785 6.72946 9.22785 8.1177C9.22777 8.65255 9.38339 9.17585 9.67571 9.62374C8.80709 9.37561 7.95989 9.21212 7.68255 9.16128C7.61432 9.14883 7.5441 9.15311 7.47789 9.17376C7.41168 9.19441 7.35147 9.23082 7.30242 9.27985C7.25337 9.32888 7.21694 9.38908 7.19626 9.45528C7.17558 9.52149 7.17127 9.59172 7.18369 9.65995C7.26755 10.1186 7.65921 12.1308 8.23365 13.2264C7.98594 13.1744 7.79015 13.1371 7.68234 13.1174C7.61424 13.1057 7.54434 13.1105 7.4785 13.1314C7.41266 13.1524 7.35279 13.1888 7.30394 13.2376C7.25509 13.2865 7.21867 13.3464 7.19775 13.4122C7.17682 13.4781 7.172 13.548 7.18369 13.6161C7.28392 14.1643 7.82295 16.9377 8.58964 17.7044C8.97895 18.0951 9.49909 18.3278 10.0498 18.3577C10.6005 18.3876 11.1428 18.2126 11.5721 17.8663V20.5719C11.5738 20.6845 11.6197 20.7918 11.6999 20.8708C11.7801 20.9498 11.8881 20.994 12.0006 20.994C12.1132 20.994 12.2212 20.9498 12.3014 20.8708C12.3816 20.7918 12.4275 20.6844 12.4292 20.5719V17.8663C12.8585 18.2126 13.4007 18.3876 13.9514 18.3577C14.5021 18.3278 15.0223 18.0951 15.4116 17.7044C16.1783 16.9377 16.7173 14.1643 16.8175 13.6161C16.8375 12.9284 16.2185 13.1288 15.7676 13.2264C16.342 12.1309 16.7337 10.1187 16.8175 9.65997C16.83 9.59175 16.8257 9.52153 16.805 9.45534C16.7844 9.38914 16.7479 9.32895 16.6989 9.27993ZM12.0006 4.19884C12.8539 5.50692 13.9163 7.37921 13.9163 8.11769C13.9167 8.36952 13.8674 8.61895 13.7713 8.85171C13.6752 9.08448 13.5341 9.29601 13.3562 9.47422C13.1783 9.65242 12.967 9.79379 12.7344 9.89025C12.5018 9.98671 12.2524 10.0364 12.0006 10.0364C11.7488 10.0364 11.4995 9.98671 11.2668 9.89025C11.0342 9.79379 10.8229 9.65242 10.645 9.47422C10.4671 9.29601 10.326 9.08448 10.2299 8.85171C10.1338 8.61895 10.0845 8.36952 10.0849 8.11769C10.0849 7.37921 11.1473 5.50694 12.0006 4.19884ZM8.15229 10.13C9.309 10.3809 10.7884 10.7975 11.1644 11.1733C11.4207 11.4354 11.5633 11.788 11.5612 12.1546C11.5592 12.5212 11.4126 12.8721 11.1535 13.1313C10.8943 13.3905 10.5433 13.537 10.1768 13.5391C9.81022 13.5411 9.45766 13.3986 9.19559 13.1423C8.81959 12.7662 8.40318 11.2868 8.15229 10.13ZM11.1644 17.0984C10.9031 17.3589 10.5491 17.5052 10.18 17.5052C9.81099 17.5052 9.457 17.3589 9.19561 17.0984C8.81959 16.7223 8.40318 15.2427 8.15229 14.0861C9.30882 14.337 10.7884 14.7534 11.1644 15.1294C11.425 15.3908 11.5714 15.7448 11.5714 16.1139C11.5714 16.483 11.425 16.837 11.1644 17.0984ZM12.2308 14.5234C12.1465 14.611 12.0695 14.7053 12.0006 14.8054C11.9317 14.7053 11.8547 14.611 11.7704 14.5234C11.6032 14.3702 11.4138 14.2429 11.2087 14.1461C11.5272 13.992 11.8001 13.7577 12.0006 13.4663C12.2011 13.7578 12.474 13.992 12.7925 14.1461C12.5874 14.2429 12.398 14.3702 12.2308 14.5234ZM15.8489 14.0861C15.598 15.2427 15.1816 16.7224 14.8056 17.0984C14.5435 17.3546 14.191 17.497 13.8245 17.4949C13.458 17.4928 13.1071 17.3463 12.848 17.0871C12.5889 16.828 12.4423 16.4771 12.4402 16.1106C12.4382 15.7441 12.5806 15.3915 12.8368 15.1294C13.2128 14.7534 14.6924 14.337 15.8489 14.0861ZM14.8056 13.1423C14.5435 13.3985 14.191 13.5409 13.8245 13.5388C13.458 13.5367 13.1071 13.3902 12.848 13.131C12.5889 12.8719 12.4423 12.521 12.4402 12.1545C12.4382 11.788 12.5806 11.4354 12.8368 11.1733C13.2128 10.7975 14.6922 10.3809 15.8489 10.13C15.598 11.2868 15.1816 12.7662 14.8056 13.1423Z" fill="#333333"/>
<path d="M21.0682 4.1452L21.7308 4.22702C21.8427 4.239 21.9548 4.20653 22.0429 4.13661C22.131 4.06669 22.1882 3.96492 22.2019 3.85326C22.2157 3.7416 22.1851 3.629 22.1166 3.53974C22.0481 3.45049 21.9472 3.39174 21.8358 3.37616L20.1953 3.17381C20.0827 3.16066 19.9693 3.19242 19.8799 3.26221C19.7904 3.332 19.7321 3.43421 19.7174 3.54671L19.5149 5.18733C19.5032 5.29901 19.5359 5.41079 19.6058 5.49864C19.6757 5.5865 19.7773 5.64341 19.8888 5.65717C20.0002 5.67092 20.1126 5.64041 20.2017 5.57219C20.2909 5.50397 20.3498 5.40349 20.3657 5.29233L20.4358 4.72424C26.6511 11.8433 21.4625 23.1789 12.0006 23.1428C9.82354 23.1448 7.69393 22.5069 5.87658 21.3082C5.78162 21.2461 5.66592 21.2242 5.55483 21.2473C5.44374 21.2704 5.34633 21.3365 5.28395 21.4313C5.22158 21.5261 5.19933 21.6418 5.22209 21.7529C5.24484 21.8641 5.31075 21.9617 5.40534 22.0243C7.36268 23.3151 9.65615 24.0021 12.0007 24C22.2053 24.0366 27.7841 11.8068 21.0682 4.1452Z" fill="#333333"/>
<path d="M4.03744 18.3018C3.98133 18.2966 3.92474 18.3026 3.87096 18.3194C3.81718 18.3363 3.76727 18.3636 3.72413 18.3999C3.68098 18.4361 3.64546 18.4806 3.61961 18.5307C3.59376 18.5807 3.5781 18.6354 3.57354 18.6916L3.52682 19.2309C-2.63247 12.1013 2.56668 0.820169 12.0008 0.85729C14.1778 0.855219 16.3074 1.49318 18.1248 2.69184C18.2197 2.75394 18.3354 2.77586 18.4465 2.75279C18.5576 2.72972 18.655 2.66353 18.7174 2.56875C18.7798 2.47397 18.802 2.35832 18.7793 2.24715C18.7565 2.13599 18.6906 2.03839 18.596 1.97574C16.6387 0.68502 14.3452 -0.00199195 12.0007 9.60776e-05C1.88262 -0.0392577 -3.72842 12.0199 2.81252 19.7148L2.20504 19.6297C2.0925 19.614 1.9783 19.6436 1.88757 19.712C1.79684 19.7805 1.73702 19.8821 1.72126 19.9947C1.7055 20.1072 1.73509 20.2214 1.80353 20.3122C1.87197 20.4029 1.97365 20.4627 2.08619 20.4785L3.80539 20.7194C3.863 20.7275 3.92165 20.7237 3.97777 20.7084C4.03388 20.6931 4.08629 20.6665 4.1318 20.6302C4.1773 20.594 4.21494 20.5489 4.24243 20.4976C4.26992 20.4463 4.28668 20.39 4.29169 20.332L4.42728 18.7657C4.43217 18.7096 4.42597 18.6532 4.40902 18.5995C4.39207 18.5458 4.36472 18.496 4.32851 18.4529C4.29231 18.4098 4.24796 18.3743 4.19802 18.3484C4.14808 18.3224 4.09351 18.3066 4.03744 18.3018Z" fill="#333333"/>
</svg>
