<svg width="24" height="24" viewBox="0 0 24 24" fill="none" xmlns="http://www.w3.org/2000/svg">
<path d="M21.3202 24.0002H15.8802C14.4002 24.0002 13.2002 22.8002 13.2002 21.3202V14.0002C13.2002 13.5602 13.5602 13.2002 14.0002 13.2002H21.3202C22.8002 13.2002 24.0002 14.4002 24.0002 15.8802V21.3202C24.0002 22.8002 22.8002 24.0002 21.3202 24.0002ZM14.8002 14.8002V21.3202C14.8002 21.9202 15.2802 22.4002 15.8802 22.4002H21.3202C21.9202 22.4002 22.4002 21.9202 22.4002 21.3202V15.8802C22.4002 15.2802 21.9202 14.8002 21.3202 14.8002H14.8002Z" fill="#333333"/>
<path d="M8.12 24.0002H2.68C1.2 24.0002 0 22.8002 0 21.3202V15.8802C0 14.4002 1.2 13.2002 2.68 13.2002H10C10.44 13.2002 10.8 13.5602 10.8 14.0002V21.3202C10.8 22.8002 9.6 24.0002 8.12 24.0002ZM2.68 14.8002C2.08 14.8002 1.6 15.2802 1.6 15.8802V21.3202C1.6 21.9202 2.08 22.4002 2.68 22.4002H8.12C8.72 22.4002 9.2 21.9202 9.2 21.3202V14.8002H2.68Z" fill="#333333"/>
<path d="M21.3202 10.8H14.0002C13.5602 10.8 13.2002 10.44 13.2002 10V2.68C13.2002 1.2 14.4002 0 15.8802 0H21.3202C22.8002 0 24.0002 1.2 24.0002 2.68V8.12C24.0002 9.6 22.8002 10.8 21.3202 10.8ZM14.8002 9.2H21.3202C21.9202 9.2 22.4002 8.72 22.4002 8.12V2.68C22.4002 2.08 21.9202 1.6 21.3202 1.6H15.8802C15.2802 1.6 14.8002 2.08 14.8002 2.68V9.2Z" fill="#333333"/>
<path d="M10 10.8H2.68C1.2 10.8 0 9.6 0 8.12V2.68C0 1.2 1.2 0 2.68 0H8.12C9.6 0 10.8 1.2 10.8 2.68V10C10.8 10.44 10.44 10.8 10 10.8ZM2.68 1.6C2.08 1.6 1.6 2.08 1.6 2.68V8.12C1.6 8.72 2.08 9.2 2.68 9.2H9.2V2.68C9.2 2.08 8.72 1.6 8.12 1.6H2.68Z" fill="#333333"/>
</svg>
