<svg width="14" height="14" viewBox="0 0 14 14" fill="none" xmlns="http://www.w3.org/2000/svg">
<path d="M2.42914 9.53695C2.31714 9.53695 2.20536 9.4943 2.11983 9.40877C1.94899 9.23792 1.94899 8.96098 2.11983 8.79014L8.95664 1.95333C9.12727 1.78248 9.40443 1.78248 9.57527 1.95333C9.74611 2.12417 9.74611 2.40111 9.57527 2.57195L2.73846 9.40877C2.65314 9.49408 2.54114 9.53695 2.42914 9.53695Z" fill="#333333"/>
<path d="M1.75386 12.6879C1.72345 12.6879 1.69261 12.6846 1.66176 12.678C1.42551 12.6273 1.27501 12.3947 1.32576 12.1585L2.0017 9.00782C2.05245 8.77157 2.28607 8.62151 2.52123 8.67182C2.75748 8.72257 2.90798 8.9551 2.85723 9.19135L2.18129 12.342C2.13732 12.5474 1.95576 12.6879 1.75386 12.6879Z" fill="#333333"/>
<path d="M4.90375 12.0113C4.79175 12.0113 4.67997 11.9687 4.59444 11.8832C4.4236 11.7123 4.4236 11.4354 4.59444 11.2645L11.4313 4.42794C11.6019 4.25709 11.879 4.25709 12.0499 4.42794C12.2207 4.59878 12.2207 4.87572 12.0499 5.04656L5.21329 11.8832C5.12775 11.9687 5.01575 12.0113 4.90375 12.0113Z" fill="#333333"/>
<path d="M1.75265 12.6877C1.55074 12.6877 1.3694 12.5472 1.32521 12.3418C1.27468 12.1056 1.42496 11.873 1.66121 11.8223L4.81186 11.1464C5.04833 11.0963 5.28086 11.2463 5.3314 11.4824C5.38193 11.7186 5.23165 11.9511 4.9954 12.0019L1.84474 12.6778C1.8139 12.6846 1.78305 12.6877 1.75265 12.6877Z" fill="#333333"/>
<path d="M10.5035 6.41216C10.3915 6.41216 10.2795 6.36951 10.1942 6.28398L7.71944 3.80926C7.5486 3.63841 7.5486 3.36148 7.71944 3.19063C7.89007 3.01979 8.16744 3.01979 8.33807 3.19063L10.8128 5.66535C10.9836 5.8362 10.9836 6.11313 10.8128 6.28398C10.7275 6.36951 10.6155 6.41216 10.5035 6.41216Z" fill="#333333"/>
<path d="M11.7407 5.17502C11.6287 5.17502 11.5167 5.13237 11.4312 5.04684C11.2604 4.87599 11.2604 4.59905 11.4312 4.42799C11.6747 4.18452 11.8088 3.85487 11.8088 3.50005C11.8088 3.14524 11.6747 2.81559 11.4312 2.57212C11.1875 2.32843 10.8579 2.19434 10.503 2.19434C10.1482 2.19434 9.81857 2.32843 9.5751 2.57212C9.40448 2.74296 9.12754 2.74318 8.95626 2.57212C8.78541 2.40127 8.78541 2.12434 8.95626 1.95327C9.36488 1.54443 9.91416 1.31934 10.503 1.31934C11.0917 1.31934 11.6412 1.54443 12.0498 1.95327C12.4587 2.3619 12.6838 2.91118 12.6838 3.50005C12.6838 4.08893 12.4587 4.63821 12.0498 5.04684C11.9647 5.13215 11.8527 5.17502 11.7407 5.17502Z" fill="#333333"/>
</svg>
