<svg width="16" height="16" viewBox="0 0 16 16" fill="none" xmlns="http://www.w3.org/2000/svg">
<g clip-path="url(#clip0_202_1536)">
<path d="M14.3333 12H12.3333C12.1493 12 12 11.8507 12 11.6667C12 11.4827 12.1493 11.3333 12.3333 11.3333H14.3333C14.8847 11.3333 15.3333 10.8847 15.3333 10.3333V5.66667C15.3333 5.11533 14.8847 4.66667 14.3333 4.66667H1.66667C1.11533 4.66667 0.666667 5.11533 0.666667 5.66667V10.3333C0.666667 10.8847 1.11533 11.3333 1.66667 11.3333H3.66667C3.85067 11.3333 4 11.4827 4 11.6667C4 11.8507 3.85067 12 3.66667 12H1.66667C0.747333 12 0 11.252 0 10.3333V5.66667C0 4.748 0.747333 4 1.66667 4H14.3333C15.2527 4 16 4.748 16 5.66667V10.3333C16 11.252 15.2527 12 14.3333 12Z" fill="#268EFF"/>
<path d="M9.66683 13.9997H5.66683C5.48283 13.9997 5.3335 13.8503 5.3335 13.6663C5.3335 13.4823 5.48283 13.333 5.66683 13.333H9.66683C9.85083 13.333 10.0002 13.4823 10.0002 13.6663C10.0002 13.8503 9.85083 13.9997 9.66683 13.9997Z" fill="#268EFF"/>
<path d="M9.66683 12.6667H5.66683C5.48283 12.6667 5.3335 12.5173 5.3335 12.3333C5.3335 12.1493 5.48283 12 5.66683 12H9.66683C9.85083 12 10.0002 12.1493 10.0002 12.3333C10.0002 12.5173 9.85083 12.6667 9.66683 12.6667Z" fill="#268EFF"/>
<path d="M7.00016 11.3337H5.66683C5.48283 11.3337 5.3335 11.1843 5.3335 11.0003C5.3335 10.8163 5.48283 10.667 5.66683 10.667H7.00016C7.18416 10.667 7.3335 10.8163 7.3335 11.0003C7.3335 11.1843 7.18416 11.3337 7.00016 11.3337Z" fill="#268EFF"/>
<path d="M12.3335 4.66667C12.1495 4.66667 12.0002 4.51733 12.0002 4.33333V1.66667C12.0002 1.11533 11.5515 0.666667 11.0002 0.666667H5.00016C4.44883 0.666667 4.00016 1.11533 4.00016 1.66667V4.33333C4.00016 4.51733 3.85083 4.66667 3.66683 4.66667C3.48283 4.66667 3.3335 4.51733 3.3335 4.33333V1.66667C3.3335 0.748 4.08083 0 5.00016 0H11.0002C11.9195 0 12.6668 0.748 12.6668 1.66667V4.33333C12.6668 4.51733 12.5175 4.66667 12.3335 4.66667Z" fill="#268EFF"/>
<path d="M11.0002 16.0003H5.00016C4.08083 16.0003 3.3335 15.2523 3.3335 14.3337V9.00033C3.3335 8.81633 3.48283 8.66699 3.66683 8.66699H12.3335C12.5175 8.66699 12.6668 8.81633 12.6668 9.00033V14.3337C12.6668 15.2523 11.9195 16.0003 11.0002 16.0003ZM4.00016 9.33366V14.3337C4.00016 14.885 4.44883 15.3337 5.00016 15.3337H11.0002C11.5515 15.3337 12.0002 14.885 12.0002 14.3337V9.33366H4.00016Z" fill="#268EFF"/>
</g>
<defs>
<clipPath id="clip0_202_1536">
<rect width="16" height="16" fill="white"/>
</clipPath>
</defs>
</svg>
